<?xml version="1.0" encoding="UTF-8" standalone="no"?>
<!-- Created with Inkscape (http://www.inkscape.org/) -->

<svg
   xmlns:dc="http://purl.org/dc/elements/1.1/"
   xmlns:cc="http://creativecommons.org/ns#"
   xmlns:rdf="http://www.w3.org/1999/02/22-rdf-syntax-ns#"
   xmlns:svg="http://www.w3.org/2000/svg"
   xmlns="http://www.w3.org/2000/svg"
   xmlns:sodipodi="http://sodipodi.sourceforge.net/DTD/sodipodi-0.dtd"
   xmlns:inkscape="http://www.inkscape.org/namespaces/inkscape"
   width="210mm"
   height="297mm"
   viewBox="0 0 210 297"
   version="1.1"
   id="svg8"
   inkscape:version="0.92.5 (2060ec1f9f, 2020-04-08)"
   sodipodi:docname="sample.svg">
  <defs
     id="defs2">
    <inkscape:perspective
       sodipodi:type="inkscape:persp3d"
       inkscape:vp_x="0 : 148.5 : 1"
       inkscape:vp_y="0 : 1000 : 0"
       inkscape:vp_z="210 : 148.5 : 1"
       inkscape:persp3d-origin="105 : 99 : 1"
       id="perspective3713" />
  </defs>
  <sodipodi:namedview
     id="base"
     pagecolor="#ffffff"
     bordercolor="#666666"
     borderopacity="1.0"
     inkscape:pageopacity="0.0"
     inkscape:pageshadow="2"
     inkscape:zoom="0.35"
     inkscape:cx="400"
     inkscape:cy="560"
     inkscape:document-units="mm"
     inkscape:current-layer="layer1"
     showgrid="false"
     inkscape:window-width="872"
     inkscape:window-height="732"
     inkscape:window-x="510"
     inkscape:window-y="34"
     inkscape:window-maximized="0" />
  <metadata
     id="metadata5">
    <rdf:RDF>
      <cc:Work
         rdf:about="">
        <dc:format>image/svg+xml</dc:format>
        <dc:type
           rdf:resource="http://purl.org/dc/dcmitype/StillImage" />
        <dc:title></dc:title>
      </cc:Work>
    </rdf:RDF>
  </metadata>
  <g
     inkscape:label="レイヤー 1"
     inkscape:groupmode="layer"
     id="layer1">
    <g
       sodipodi:type="inkscape:box3d"
       id="g3715"
       inkscape:perspectiveID="#perspective3713"
       inkscape:corner0="1.6711085 : 0.22428273 : 0 : 1"
       inkscape:corner7="0.71478569 : 0.17078027 : 0.25 : 1">
      <path
         sodipodi:type="inkscape:box3dside"
         id="path3717"
         style="fill:#353564;fill-rule:evenodd;stroke:none;stroke-linejoin:round"
         inkscape:box3dsidetype="6"
         d="m 39.309524,83.065476 v 20.030054 l 14.608365,3.8859 V 88.665621 Z"
         points="39.309524,103.09553 53.917889,106.98143 53.917889,88.665621 39.309524,83.065476 " />
      <path
         sodipodi:type="inkscape:box3dside"
         id="path3727"
         style="fill:#e9e9ff;fill-rule:evenodd;stroke:none;stroke-linejoin:round"
         inkscape:box3dsidetype="11"
         d="M 53.917889,88.665621 80.161416,59.54235 V 86.773035 L 53.917889,106.98143 Z"
         points="80.161416,59.54235 80.161416,86.773035 53.917889,106.98143 53.917889,88.665621 " />
      <path
         sodipodi:type="inkscape:box3dside"
         id="path3719"
         style="fill:#4d4d9f;fill-rule:evenodd;stroke:none;stroke-linejoin:round"
         inkscape:box3dsidetype="5"
         d="M 39.309524,83.065476 61.232143,46.573142 80.161416,59.54235 53.917889,88.665621 Z"
         points="61.232143,46.573142 80.161416,59.54235 53.917889,88.665621 39.309524,83.065476 " />
      <path
         sodipodi:type="inkscape:box3dside"
         id="path3725"
         style="fill:#afafde;fill-rule:evenodd;stroke:none;stroke-linejoin:round"
         inkscape:box3dsidetype="13"
         d="M 39.309524,103.09553 61.232143,77.77381 80.161416,86.773035 53.917889,106.98143 Z"
         points="61.232143,77.77381 80.161416,86.773035 53.917889,106.98143 39.309524,103.09553 " />
      <path
         sodipodi:type="inkscape:box3dside"
         id="path3723"
         style="fill:#d7d7ff;fill-rule:evenodd;stroke:none;stroke-linejoin:round"
         inkscape:box3dsidetype="14"
         d="M 61.232143,46.573142 V 77.77381 l 18.929273,8.999225 V 59.54235 Z"
         points="61.232143,77.77381 80.161416,86.773035 80.161416,59.54235 61.232143,46.573142 " />
      <path
         sodipodi:type="inkscape:box3dside"
         id="path3721"
         style="fill:#8686bf;fill-rule:evenodd;stroke:none;stroke-linejoin:round"
         inkscape:box3dsidetype="3"
         d="M 39.309524,83.065476 61.232143,46.573142 V 77.77381 l -21.922619,25.32172 z"
         points="61.232143,46.573142 61.232143,77.77381 39.309524,103.09553 39.309524,83.065476 " />
    </g>
    <path
       sodipodi:type="spiral"
       style="fill:none;fill-rule:evenodd;stroke:#000000;stroke-width:0.26458332"
       id="path3729"
       sodipodi:cx="135.31548"
       sodipodi:cy="144.29762"
       sodipodi:expansion="1"
       sodipodi:revolution="3"
       sodipodi:radius="34.47673"
       sodipodi:argument="-17.939802"
       sodipodi:t0="0"
       d="m 135.31548,144.29762 c 1.06126,1.36448 -1.31571,2.10375 -2.26786,1.76389 -2.58028,-0.921 -2.58199,-4.37369 -1.25992,-6.2996 2.36488,-3.44501 7.36438,-3.25829 10.33135,-0.75595 4.35415,3.67228 3.96037,10.39772 0.25198,14.36309 -4.94271,5.28523 -13.44648,4.6738 -18.39484,-0.25199 -6.22702,-6.1986 -5.39315,-16.50264 0.75596,-22.42659 7.4474,-7.17469 19.56299,-6.11595 26.45833,1.25994 8.12593,8.69223 6.84092,22.62595 -1.76391,30.49008 -9.93461,9.07944 -25.69066,7.56733 -34.52182,-2.26788 -10.03452,-11.1754 -8.29476,-28.7566 2.77185,-38.55357 12.41507,-10.99072 31.82342,-9.02292 42.58531,3.27582 11.94774,13.65394 9.75164,34.89092 -3.77979,46.61706" />
    <path
       sodipodi:type="spiral"
       style="fill:none;fill-rule:evenodd;stroke:#000000;stroke-width:0.26458332"
       id="path3731"
       sodipodi:cx="109.6131"
       sodipodi:cy="85.333336"
       sodipodi:expansion="1"
       sodipodi:revolution="3"
       sodipodi:radius="29.829002"
       sodipodi:argument="-18.696907"
       sodipodi:t0="0"
       d="m 109.6131,85.333336 c 1.47819,0.227413 0.42274,2.104765 -0.37798,2.456845 -2.16988,0.954116 -4.22265,-1.216073 -4.53571,-3.212795 -0.55999,-3.571668 2.69488,-6.425104 6.04761,-6.614586 4.92027,-0.278073 8.66912,4.185183 8.69346,8.882436 0.0324,6.2607 -5.67844,10.929409 -11.71726,10.772326 -7.59923,-0.197672 -13.197838,-7.172831 -12.851194,-14.552077 0.419833,-8.937254 8.667804,-15.47093 17.386894,-14.930066 10.27515,0.637388 17.74694,10.163139 17.00894,20.221717 -0.85205,11.613027 -11.65871,20.024884 -23.05654,19.087804 C 93.260384,106.38018 83.907124,94.290497 85.044645,81.553585 86.320772,67.264695 99.694956,56.969082 113.77082,58.308037 c 15.62689,1.486495 26.86556,16.146272 25.32442,31.561" />
    <ellipse
       id="path3733"
       cx="100.54166"
       cy="38.842251"
       rx="29.482143"
       ry="29.104166"
       style="stroke-width:0.26458332;image-rendering:auto;fill:none;stroke:#ff0000;stroke-opacity:1" />
  </g>
</svg>
