<?xml version="1.0" encoding="UTF-8" standalone="no"?>
<!-- Created with Inkscape (http://www.inkscape.org/) -->

<svg
   xmlns:dc="http://purl.org/dc/elements/1.1/"
   xmlns:cc="http://creativecommons.org/ns#"
   xmlns:rdf="http://www.w3.org/1999/02/22-rdf-syntax-ns#"
   xmlns:svg="http://www.w3.org/2000/svg"
   xmlns="http://www.w3.org/2000/svg"
   xmlns:sodipodi="http://sodipodi.sourceforge.net/DTD/sodipodi-0.dtd"
   xmlns:inkscape="http://www.inkscape.org/namespaces/inkscape"
   width="210mm"
   height="297mm"
   viewBox="0 0 210 297"
   version="1.1"
   id="svg1053"
   inkscape:version="0.92.5 (2060ec1f9f, 2020-04-08)"
   sodipodi:docname="Signal.svg">
  <defs
     id="defs1047">
    <inkscape:path-effect
       effect="spiro"
       id="path-effect1059"
       is_visible="true" />
  </defs>
  <sodipodi:namedview
     id="base"
     pagecolor="#ffffff"
     bordercolor="#666666"
     borderopacity="1.0"
     inkscape:pageopacity="0.0"
     inkscape:pageshadow="2"
     inkscape:zoom="0.35"
     inkscape:cx="-234.28571"
     inkscape:cy="560"
     inkscape:document-units="mm"
     inkscape:current-layer="layer1"
     showgrid="false"
     fit-margin-top="0"
     fit-margin-left="0"
     fit-margin-right="0"
     fit-margin-bottom="0"
     showborder="false"
     inkscape:window-width="1920"
     inkscape:window-height="1027"
     inkscape:window-x="0"
     inkscape:window-y="0"
     inkscape:window-maximized="1" />
  <metadata
     id="metadata1050">
    <rdf:RDF>
      <cc:Work
         rdf:about="">
        <dc:format>image/svg+xml</dc:format>
        <dc:type
           rdf:resource="http://purl.org/dc/dcmitype/StillImage" />
        <dc:title></dc:title>
      </cc:Work>
    </rdf:RDF>
  </metadata>
  <g
     inkscape:label="レイヤー 1"
     inkscape:groupmode="layer"
     id="layer1">
    <path
       style="fill:none;stroke:#000000;stroke-width:2;stroke-linecap:butt;stroke-linejoin:miter;stroke-opacity:1;stroke-miterlimit:4;stroke-dasharray:none"
       d="m -325.81548,191.92262 c -0.65644,-6.27474 -0.90911,-12.59169 -0.75594,-18.89881 0.14511,-5.97539 0.66547,-11.99977 2.45878,-17.70156 1.79331,-5.70179 4.945,-11.10081 9.63646,-14.8044 3.79895,-2.99902 8.53548,-4.79252 13.36807,-5.06121 4.83259,-0.2687 9.73893,0.98876 13.84621,3.54931 3.90944,2.43721 7.05518,6.00232 9.29848,10.02616 2.2433,4.02385 3.60944,8.49803 4.35046,13.04496 1.48206,9.09386 0.50472,18.38008 -0.0418,27.57769 -1.12121,18.86976 -0.41041,37.79654 -0.75597,56.69643 -0.1067,5.83578 -0.31177,11.70975 0.59192,17.47612 0.90369,5.76637 3.00742,11.49807 6.96762,15.78578 3.59279,3.88992 8.65271,6.41092 13.92932,6.85473 5.27662,0.44381 10.71542,-1.21323 14.79686,-4.58688 3.9483,-3.26359 6.52058,-7.95159 8.03881,-12.84394 1.51823,-4.89235 2.06067,-10.02668 2.54453,-15.12629 1.52753,-16.09922 2.54313,-32.41064 0,-48.38095 -1.0262,-6.44432 -2.63064,-12.82656 -2.87401,-19.34754 -0.12169,-3.26049 0.10259,-6.54991 0.90129,-9.7134 0.7987,-3.16349 2.18528,-6.20263 4.24057,-8.73668 2.71778,-3.35087 6.5917,-5.74201 10.8015,-6.6866 4.2098,-0.94459 8.72806,-0.4397 12.63303,1.39494 3.48979,1.63958 6.45433,4.29637 8.7059,7.42643 2.25157,3.13006 3.81028,6.72359 4.84393,10.43821 2.06731,7.42924 2.05955,15.24985 2.32517,22.95678 0.43457,12.60881 1.63612,25.28786 0,37.79762 -0.79034,6.04293 -2.23338,12.23026 -0.75596,18.14286 1.22099,4.88638 4.48561,9.22782 8.84118,11.75697 4.35556,2.52914 9.74446,3.21245 14.59335,1.85017 4.00233,-1.12444 7.57212,-3.57771 10.3078,-6.70805 2.73568,-3.13034 4.66259,-6.9167 5.90251,-10.88477 2.47986,-7.93613 2.24719,-16.4319 1.93254,-24.74051 -0.42038,-11.10048 -0.9406,-22.2838 0.75596,-33.26191 0.44334,-2.86874 1.04483,-5.73876 2.21038,-8.39727 1.16556,-2.65852 2.93335,-5.11237 5.34914,-6.72177 2.703,-1.80074 6.10515,-2.438 9.32106,-1.98321 3.21591,0.4548 6.23971,1.95741 8.71826,4.0564 4.95708,4.19797 7.62007,10.51864 9.17497,16.82561 2.36741,9.60265 2.55309,19.64693 1.5119,29.48215 -0.6413,6.05784 -1.72703,12.3011 0,18.14285 1.40996,4.76925 4.71649,8.94405 9.022036,11.43321 4.305548,2.48917 9.562007,3.27237 14.412488,2.17394 5.029154,-1.13889 9.503236,-4.22118 12.802765,-8.18383 3.299528,-3.96265 5.480892,-8.76792 6.851996,-13.73879 2.373628,-8.60547 2.373628,-17.85286 0,-26.45833"
       id="path1057"
       inkscape:connector-curvature="0"
       inkscape:path-effect="#path-effect1059"
       inkscape:original-d="m -325.81548,191.92262 c -0.25172,-6.29987 -0.50369,-12.59947 -0.75594,-18.89881 -0.25225,-6.29934 8.06376,-21.6709 12.09524,-32.50596 4.03148,-10.83505 18.14311,-1.0082 27.21428,-1.5119 9.07116,-0.5037 9.07168,33.76561 13.60715,50.64881 4.53543,16.8832 -0.50372,37.79735 -0.75597,56.69643 -0.25223,18.89908 5.03997,22.17433 7.55954,33.2619 2.51957,11.08758 19.15105,1.51165 28.72618,2.26785 9.57514,0.75623 7.05582,-18.64708 10.58334,-27.97023 3.52751,-9.32315 2.6e-4,-32.25423 0,-48.38095 -2.7e-4,-16.12672 1.51217,-25.19868 2.26785,-37.79762 0.75569,-12.59894 15.62328,-3.52804 23.43453,-5.29166 7.81124,-1.76363 10.5836,27.21402 15.875,40.82142 5.2914,13.60741 2.6e-4,25.19815 0,37.79762 -2.7e-4,12.59947 -0.50371,12.09497 -0.75596,18.14286 -0.25225,6.04789 15.62328,9.07117 23.43453,13.60714 7.81124,4.53599 12.0955,-28.22249 18.14285,-42.33333 6.04736,-14.11085 0.50424,-22.17487 0.75596,-33.26191 0.25172,-11.08703 5.03994,-10.07963 7.55952,-15.11904 2.51958,-5.03942 18.14312,12.59894 27.21429,18.8988 9.07116,6.29987 1.0082,19.6545 1.5119,29.48215 0.5037,9.82764 2.7e-4,12.09497 0,18.14285 -2.6e-4,6.04789 15.623281,9.07117 23.434524,13.60715 7.811244,4.53598 13.10344,-14.61535 19.654761,-21.92262 6.551324,-7.30728 2.65e-4,-17.63916 0,-26.45833" />
  </g>
</svg>
